<svg width="100" height="100" data-v-fde0c5aa="" xmlns="http://www.w3.org/2000/svg" viewBox="0 0 300 300" class="iconLeft"><!----><defs data-v-fde0c5aa=""><!----></defs><!----><defs data-v-fde0c5aa=""><linearGradient data-v-fde0c5aa="" gradientTransform="rotate(25)" id="9f22b26d-db80-4937-96ca-1a7d7eaf0b62" x1="0%" y1="0%" x2="100%" y2="0%"><stop data-v-fde0c5aa="" offset="0%" stop-color="#2ab7ca" stop-opacity="1"></stop><stop data-v-fde0c5aa="" offset="100%" stop-color="#1a8fe3" stop-opacity="1"></stop></linearGradient></defs><g data-v-fde0c5aa="" id="b88faee3-26eb-4b2c-8285-357af382263b" fill="url(#9f22b26d-db80-4937-96ca-1a7d7eaf0b62)" transform="matrix(2.036875987417944,0,0,2.036875987417944,74.76648653959963,135.01877658806163)"><path d="M0.70 12.02L0.70 12.02L0.70 2.67L0.70 2.67Q0.70 2.57 0.76 2.51L0.76 2.51L0.76 2.51Q0.82 2.45 0.92 2.45L0.92 2.45L4.29 2.45L4.29 2.45Q5.28 2.45 5.79 2.96L5.79 2.96L5.79 2.96Q6.30 3.47 6.30 4.46L6.30 4.46L6.30 7.21L6.30 7.21Q6.30 8.19 5.79 8.71L5.79 8.71L5.79 8.71Q5.28 9.22 4.29 9.23L4.29 9.23L2.52 9.24L2.52 12.04L2.52 12.04Q2.52 12.26 2.30 12.26L2.30 12.26L0.92 12.25L0.92 12.25Q0.82 12.25 0.76 12.19L0.76 12.19L0.76 12.19Q0.70 12.13 0.70 12.02ZM2.52 4.27L2.52 7.43L3.92 7.42L3.92 7.42Q4.48 7.42 4.48 6.86L4.48 6.86L4.48 4.82L4.48 4.82Q4.48 4.26 3.92 4.26L3.92 4.26L2.52 4.27ZM7.70 12.02L7.70 12.02L7.70 2.67L7.70 2.67Q7.70 2.57 7.76 2.51L7.76 2.51L7.76 2.51Q7.82 2.45 7.92 2.45L7.92 2.45L11.29 2.45L11.29 2.45Q12.28 2.45 12.79 2.96L12.79 2.96L12.79 2.96Q13.30 3.47 13.30 4.46L13.30 4.46L13.30 7.28L13.30 7.28Q13.30 8.50 12.52 8.99L12.52 8.99L13.24 12.00L13.24 12.00Q13.30 12.25 13.05 12.25L13.05 12.25L11.68 12.25L11.68 12.25Q11.48 12.25 11.44 12.05L11.44 12.05L10.77 9.30L9.52 9.30L9.52 12.02L9.52 12.02Q9.52 12.13 9.46 12.19L9.46 12.19L9.46 12.19Q9.40 12.25 9.30 12.25L9.30 12.25L7.92 12.25L7.92 12.25Q7.82 12.25 7.76 12.19L7.76 12.19L7.76 12.19Q7.70 12.13 7.70 12.02ZM9.52 4.26L9.52 7.49L10.92 7.49L10.92 7.49Q11.48 7.49 11.48 6.93L11.48 6.93L11.48 4.82L11.48 4.82Q11.48 4.26 10.92 4.26L10.92 4.26L9.52 4.26ZM14.70 10.23L14.70 10.23L14.70 4.46L14.70 4.46Q14.70 3.47 15.21 2.96L15.21 2.96L15.21 2.96Q15.72 2.45 16.71 2.45L16.71 2.45L18.29 2.45L18.29 2.45Q19.28 2.45 19.79 2.96L19.79 2.96L19.79 2.96Q20.30 3.47 20.30 4.46L20.30 4.46L20.30 10.23L20.30 10.23Q20.30 11.22 19.79 11.74L19.79 11.74L19.79 11.74Q19.28 12.25 18.29 12.25L18.29 12.25L16.71 12.25L16.71 12.25Q15.72 12.25 15.21 11.74L15.21 11.74L15.21 11.74Q14.70 11.22 14.70 10.23ZM16.52 4.82L16.52 9.88L16.52 9.88Q16.52 10.45 17.08 10.45L17.08 10.45L17.98 10.45L17.98 10.45Q18.54 10.45 18.54 9.88L18.54 9.88L18.54 4.82L18.54 4.82Q18.54 4.26 17.98 4.26L17.98 4.26L17.08 4.26L17.08 4.26Q16.52 4.26 16.52 4.82L16.52 4.82ZM21.70 11.97L21.70 11.97L21.70 2.73L21.70 2.73Q21.70 2.45 21.98 2.45L21.98 2.45L23.83 2.45L23.83 2.45Q24.08 2.45 24.14 2.69L24.14 2.69L25.69 8.93L27.24 2.69L27.24 2.69Q27.30 2.45 27.55 2.45L27.55 2.45L29.40 2.45L29.40 2.45Q29.68 2.45 29.68 2.73L29.68 2.73L29.68 11.97L29.68 11.97Q29.68 12.25 29.40 12.25L29.40 12.25L28.10 12.25L28.10 12.25Q27.82 12.25 27.82 11.97L27.82 11.97L27.82 6.47L27.72 6.47L26.41 12.01L26.41 12.01Q26.35 12.25 26.09 12.25L26.09 12.25L25.27 12.25L25.27 12.25Q25.03 12.25 24.96 12.01L24.96 12.01L23.65 6.47L23.55 6.47L23.55 11.97L23.55 11.97Q23.55 12.25 23.27 12.25L23.27 12.25L21.98 12.25L21.98 12.25Q21.70 12.25 21.70 11.97ZM31.08 12.02L31.08 12.02L31.08 2.67L31.08 2.67Q31.08 2.57 31.14 2.51L31.14 2.51L31.14 2.51Q31.20 2.45 31.30 2.45L31.30 2.45L34.67 2.45L34.67 2.45Q35.66 2.45 36.17 2.96L36.17 2.96L36.17 2.96Q36.68 3.47 36.68 4.46L36.68 4.46L36.68 7.21L36.68 7.21Q36.68 8.19 36.17 8.71L36.17 8.71L36.17 8.71Q35.66 9.22 34.67 9.23L34.67 9.23L32.90 9.24L32.90 12.04L32.90 12.04Q32.90 12.26 32.68 12.26L32.68 12.26L31.30 12.25L31.30 12.25Q31.20 12.25 31.14 12.19L31.14 12.19L31.14 12.19Q31.08 12.13 31.08 12.02ZM32.90 4.27L32.90 7.43L34.30 7.42L34.30 7.42Q34.86 7.42 34.86 6.86L34.86 6.86L34.86 4.82L34.86 4.82Q34.86 4.26 34.30 4.26L34.30 4.26L32.90 4.27ZM37.66 2.67L37.66 4.07L37.66 4.07Q37.66 4.18 37.72 4.24L37.72 4.24L37.72 4.24Q37.78 4.30 37.88 4.30L37.88 4.30L39.51 4.30L39.51 12.02L39.51 12.02Q39.51 12.25 39.74 12.25L39.74 12.25L41.19 12.25L41.19 12.25Q41.41 12.25 41.41 12.02L41.41 12.02L41.41 4.30L43.04 4.30L43.04 4.30Q43.26 4.30 43.26 4.07L43.26 4.07L43.26 2.67L43.26 2.67Q43.26 2.45 43.04 2.45L43.04 2.45L37.88 2.45L37.88 2.45Q37.78 2.45 37.72 2.51L37.72 2.51L37.72 2.51Q37.66 2.57 37.66 2.67L37.66 2.67ZM47.88 12.02L47.88 12.02L47.88 2.67L47.88 2.67Q47.88 2.45 48.10 2.45L48.10 2.45L51.47 2.45L51.47 2.45Q52.46 2.45 52.98 2.96L52.98 2.96L52.98 2.96Q53.50 3.47 53.50 4.46L53.50 4.46L53.50 6.36L53.50 6.36Q53.50 6.74 53.25 7.01L53.25 7.01L53.25 7.01Q53.00 7.29 52.62 7.35L52.62 7.35L52.62 7.38L52.62 7.38Q53.00 7.44 53.25 7.71L53.25 7.71L53.25 7.71Q53.50 7.99 53.50 8.37L53.50 8.37L53.50 10.23L53.50 10.23Q53.50 11.22 52.98 11.74L52.98 11.74L52.98 11.74Q52.46 12.25 51.47 12.25L51.47 12.25L48.10 12.25L48.10 12.25Q48.00 12.25 47.94 12.19L47.94 12.19L47.94 12.19Q47.88 12.13 47.88 12.02ZM49.62 8.29L49.62 10.49L51.16 10.49L51.16 10.49Q51.72 10.49 51.72 9.93L51.72 9.93L51.72 8.85L51.72 8.85Q51.72 8.29 51.16 8.29L51.16 8.29L49.62 8.29ZM49.62 4.21L49.62 6.44L51.16 6.44L51.16 6.44Q51.43 6.44 51.58 6.30L51.58 6.30L51.58 6.30Q51.72 6.15 51.72 5.89L51.72 5.89L51.72 4.77L51.72 4.77Q51.72 4.21 51.16 4.21L51.16 4.21L49.62 4.21ZM54.89 10.23L54.89 10.23L54.89 2.73L54.89 2.73Q54.89 2.61 54.97 2.53L54.97 2.53L54.97 2.53Q55.06 2.45 55.17 2.45L55.17 2.45L56.52 2.45L56.52 2.45Q56.64 2.45 56.72 2.53L56.72 2.53L56.72 2.53Q56.80 2.61 56.80 2.73L56.80 2.73L56.80 9.84L56.80 9.84Q56.80 10.40 57.36 10.40L57.36 10.40L58.08 10.40L58.08 10.40Q58.65 10.40 58.65 9.84L58.65 9.84L58.65 2.73L58.65 2.73Q58.65 2.61 58.73 2.53L58.73 2.53L58.73 2.53Q58.81 2.45 58.93 2.45L58.93 2.45L60.22 2.45L60.22 2.45Q60.33 2.45 60.42 2.53L60.42 2.53L60.42 2.53Q60.50 2.61 60.50 2.73L60.50 2.73L60.50 10.23L60.50 10.23Q60.50 11.22 59.99 11.74L59.99 11.74L59.99 11.74Q59.47 12.25 58.48 12.25L58.48 12.25L56.91 12.25L56.91 12.25Q55.92 12.25 55.41 11.74L55.41 11.74L55.41 11.74Q54.89 11.22 54.89 10.23ZM61.89 2.67L61.89 12.02L61.89 12.02Q61.89 12.25 62.12 12.25L62.12 12.25L63.57 12.25L63.57 12.25Q63.68 12.25 63.74 12.19L63.74 12.19L63.74 12.19Q63.80 12.13 63.80 12.02L63.80 12.02L63.80 2.67L63.80 2.67Q63.80 2.57 63.74 2.51L63.74 2.51L63.74 2.51Q63.68 2.45 63.57 2.45L63.57 2.45L62.12 2.45L62.12 2.45Q61.89 2.45 61.89 2.67L61.89 2.67ZM65.19 2.67L65.19 12.02L65.19 12.02Q65.19 12.25 65.42 12.25L65.42 12.25L69.87 12.25L69.87 12.25Q70.10 12.25 70.10 12.02L70.10 12.02L70.10 10.62L70.10 10.62Q70.10 10.40 69.87 10.40L69.87 10.40L67.10 10.40L67.10 2.67L67.10 2.67Q67.10 2.45 66.88 2.45L66.88 2.45L65.42 2.45L65.42 2.45Q65.32 2.45 65.26 2.51L65.26 2.51L65.26 2.51Q65.19 2.57 65.19 2.67L65.19 2.67ZM71.49 12.02L71.49 12.02L71.49 2.67L71.49 2.67Q71.49 2.45 71.72 2.45L71.72 2.45L75.08 2.45L75.08 2.45Q76.07 2.45 76.58 2.97L76.58 2.97L76.58 2.97Q77.10 3.49 77.10 4.48L77.10 4.48L77.10 10.23L77.10 10.23Q77.10 11.22 76.58 11.74L76.58 11.74L76.58 11.74Q76.07 12.25 75.08 12.25L75.08 12.25L71.72 12.25L71.72 12.25Q71.49 12.25 71.49 12.02ZM73.40 4.30L73.40 10.40L74.68 10.40L74.68 10.40Q75.24 10.40 75.24 9.84L75.24 9.84L75.24 4.87L75.24 4.87Q75.24 4.30 74.68 4.30L74.68 4.30L73.40 4.30ZM78.49 12.02L78.49 12.02L78.49 2.67L78.49 2.67Q78.49 2.57 78.55 2.51L78.55 2.51L78.55 2.51Q78.61 2.45 78.70 2.45L78.70 2.45L83.86 2.45L83.86 2.45Q84.08 2.45 84.08 2.67L84.08 2.67L84.08 4.07L84.08 4.07Q84.08 4.31 83.86 4.31L83.86 4.31L80.40 4.31L80.40 6.47L83.03 6.47L83.03 6.47Q83.25 6.47 83.25 6.71L83.25 6.71L83.25 8.09L83.25 8.09Q83.25 8.33 83.03 8.33L83.03 8.33L80.40 8.33L80.40 10.40L83.86 10.40L83.86 10.40Q83.99 10.40 84.03 10.45L84.03 10.45L84.03 10.45Q84.08 10.50 84.08 10.62L84.08 10.62L84.08 12.02L84.08 12.02Q84.08 12.25 83.86 12.25L83.86 12.25L78.70 12.25L78.70 12.25Q78.61 12.25 78.55 12.19L78.55 12.19L78.55 12.19Q78.49 12.13 78.49 12.02ZM85.33 12.02L85.33 12.02L85.33 2.67L85.33 2.67Q85.33 2.57 85.39 2.51L85.39 2.51L85.39 2.51Q85.46 2.45 85.56 2.45L85.56 2.45L88.92 2.45L88.92 2.45Q89.91 2.45 90.43 2.96L90.43 2.96L90.43 2.96Q90.94 3.47 90.94 4.46L90.94 4.46L90.94 7.28L90.94 7.28Q90.94 8.50 90.15 8.99L90.15 8.99L90.88 12.00L90.88 12.00Q90.94 12.25 90.69 12.25L90.69 12.25L89.31 12.25L89.31 12.25Q89.11 12.25 89.07 12.05L89.07 12.05L88.40 9.30L87.16 9.30L87.16 12.02L87.16 12.02Q87.16 12.13 87.10 12.19L87.10 12.19L87.10 12.19Q87.04 12.25 86.93 12.25L86.93 12.25L85.56 12.25L85.56 12.25Q85.46 12.25 85.39 12.19L85.39 12.19L85.39 12.19Q85.33 12.13 85.33 12.02ZM87.16 4.26L87.16 7.49L88.55 7.49L88.55 7.49Q89.11 7.49 89.11 6.93L89.11 6.93L89.11 4.82L89.11 4.82Q89.11 4.26 88.55 4.26L88.55 4.26L87.16 4.26Z"></path></g><defs data-v-fde0c5aa=""><linearGradient data-v-fde0c5aa="" gradientTransform="rotate(25)" id="6b0eeb6e-51ce-461c-b3f4-b7e0bc5c3559" x1="0%" y1="0%" x2="100%" y2="0%"><stop data-v-fde0c5aa="" offset="0%" stop-color="#57467b" stop-opacity="1"></stop><stop data-v-fde0c5aa="" offset="100%" stop-color="#57467b" stop-opacity="1"></stop></linearGradient></defs><g data-v-fde0c5aa="" id="8a43b3af-17c5-45e1-8548-1508eef62910" stroke="none" fill="url(#6b0eeb6e-51ce-461c-b3f4-b7e0bc5c3559)" transform="matrix(0.3064278812851987,0,0,0.3064278812851987,36.021646878058604,134.70725640025688)"><g clip-rule="evenodd"><path d="M12.983 10.59l17.018 88.223-5.872-59.049 29.021-1.892-.054-9.883L64.549 1 53.622 18.977z"></path><path d="M59.389 54.548l5.16-53.541-8.74 39.716-19.612 1.045 1.57 20.462-7.766 36.583 12.057-39.899z"></path><path d="M62.8 67.182l.549-10.453-15.979 3.755-.032 11.797-17.337 26.532 21.68-27.616zM65.711 62.394l14.841-4.731 1.509-12.532-15.899 2.095zM72.07 44.502l10.988-1.417 1.581-10.278-8.079-.373L64.549 1l8.43 30.967z"></path><path d="M87.413 31.294l1.256-9.506-9.544-2.694L64.549 1l14.483 22.437-.422 7z"></path></g></g><!----></svg>